<svg xmlns="http://www.w3.org/2000/svg" width="15" height="15" viewBox="0 0 15.86 15.67">
  <path d="M15.81,11.07a5.7,5.7,0,0,1-.37,1.9,3.83,3.83,0,0,1-.91,1.39,3.88,3.88,0,0,1-1.4.9,5.88,5.88,0,0,1-1.92.36c-.85,0-1.12,0-3.27,0s-2.42,0-3.27,0a5.87,5.87,0,0,1-1.92-.36,3.88,3.88,0,0,1-1.4-.9A3.83,3.83,0,0,1,.42,13,5.69,5.69,0,0,1,0,11.07c0-.84,0-1.1,0-3.23S0,5.44,0,4.6A5.68,5.68,0,0,1,.42,2.7a3.84,3.84,0,0,1,.91-1.39,3.9,3.9,0,0,1,1.4-.9A5.89,5.89,0,0,1,4.66,0c.85,0,1.12,0,3.27,0s2.42,0,3.27,0a5.89,5.89,0,0,1,1.92.36,3.9,3.9,0,0,1,1.4.9,3.84,3.84,0,0,1,.91,1.39,5.69,5.69,0,0,1,.37,1.9c0,.84,0,1.1,0,3.23S15.85,10.23,15.81,11.07Zm-1.43-6.4a4.29,4.29,0,0,0-.27-1.45,2.42,2.42,0,0,0-.59-.9,2.46,2.46,0,0,0-.91-.59,4.43,4.43,0,0,0-1.47-.27c-.84,0-1.09,0-3.2,0s-2.37,0-3.2,0a4.43,4.43,0,0,0-1.47.27,2.46,2.46,0,0,0-.91.59,2.42,2.42,0,0,0-.59.9,4.29,4.29,0,0,0-.27,1.45c0,.83,0,1.07,0,3.17s0,2.34,0,3.17a4.29,4.29,0,0,0,.27,1.46,2.42,2.42,0,0,0,.59.9,2.45,2.45,0,0,0,.91.59,4.44,4.44,0,0,0,1.47.27c.84,0,1.09,0,3.2,0s2.37,0,3.2,0a4.44,4.44,0,0,0,1.47-.27,2.45,2.45,0,0,0,.91-.59,2.42,2.42,0,0,0,.59-.9A4.3,4.3,0,0,0,14.38,11c0-.83,0-1.07,0-3.17S14.42,5.5,14.38,4.67Zm-2.22-.08a.94.94,0,1,1,1-.94A.95.95,0,0,1,12.16,4.59ZM7.93,11.86a4,4,0,1,1,4.07-4A4,4,0,0,1,7.93,11.86Zm0-6.63a2.61,2.61,0,1,0,2.64,2.61A2.63,2.63,0,0,0,7.93,5.22Z"/>
</svg>
