<svg xmlns="http://www.w3.org/2000/svg" width="18" height="17" viewBox="0 0 18.25 17">
  <path d="M9.24,17H9a4,4,0,0,1-2.45-1,3.58,3.58,0,0,0-1.42-.72,4.6,4.6,0,0,0-.74-.06,5.15,5.15,0,0,0-1,.11,2.26,2.26,0,0,1-.38.06.24.24,0,0,1-.27-.19c0-.14-.07-.28-.1-.42-.08-.35-.13-.56-.28-.58C.63,14,.14,13.62,0,13.36a.33.33,0,0,1,0-.11.19.19,0,0,1,.16-.2A5.67,5.67,0,0,0,4,9.84H4A1,1,0,0,0,4.13,9c-.18-.42-.77-.61-1.16-.73l-.26-.09c-.78-.31-.84-.62-.81-.78a.74.74,0,0,1,.72-.46.51.51,0,0,1,.21,0,2.28,2.28,0,0,0,.94.25A.78.78,0,0,0,4.32,7c0-.18,0-.36,0-.55a9.09,9.09,0,0,1,.22-3.65A4.77,4.77,0,0,1,8.94,0h.37a4.78,4.78,0,0,1,4.44,2.84A9.09,9.09,0,0,1,14,6.49v.05c0,.17,0,.34,0,.5a.75.75,0,0,0,.51.18h0A2.36,2.36,0,0,0,15.32,7a.68.68,0,0,1,.28-.05.85.85,0,0,1,.32.06h0a.58.58,0,0,1,.44.47c0,.18-.14.45-.82.72l-.26.09c-.39.12-1,.31-1.16.73a1,1,0,0,0,.09.84h0a5.66,5.66,0,0,0,3.87,3.22.19.19,0,0,1,.16.2.32.32,0,0,1,0,.11c-.11.25-.6.61-2.31.87-.14,0-.19.2-.28.58,0,.14-.06.27-.1.42a.23.23,0,0,1-.25.18h0a2.17,2.17,0,0,1-.38,0,5.18,5.18,0,0,0-1-.11,4.61,4.61,0,0,0-.74.06,3.58,3.58,0,0,0-1.41.72A4,4,0,0,1,9.24,17Z"/>
</svg>
