<svg xmlns="http://www.w3.org/2000/svg" width="15" height="15" viewBox="0 0 15.86 15.67"><path d="M15.81 11.07a5.7 5.7 0 0 1-.37 1.9 3.83 3.83 0 0 1-.91 1.39 3.88 3.88 0 0 1-1.4.9 5.88 5.88 0 0 1-1.92.36H4.67a5.87 5.87 0 0 1-1.92-.36 3.88 3.88 0 0 1-1.4-.9A3.83 3.83 0 0 1 .42 13 5.69 5.69 0 0 1 0 11.07V4.6a5.68 5.68 0 0 1 .42-1.9 3.84 3.84 0 0 1 .91-1.39 3.9 3.9 0 0 1 1.4-.9A5.89 5.89 0 0 1 4.66 0h6.54a5.89 5.89 0 0 1 1.92.36 3.9 3.9 0 0 1 1.4.9 3.84 3.84 0 0 1 .91 1.39 5.69 5.69 0 0 1 .37 1.9v3.23c0 2.13.05 2.45.01 3.29zm-1.43-6.4a4.29 4.29 0 0 0-.27-1.45 2.42 2.42 0 0 0-.59-.9 2.46 2.46 0 0 0-.91-.59 4.43 4.43 0 0 0-1.47-.27h-6.4a4.43 4.43 0 0 0-1.47.27 2.46 2.46 0 0 0-.91.59 2.42 2.42 0 0 0-.59.9 4.29 4.29 0 0 0-.27 1.45v6.34a4.29 4.29 0 0 0 .27 1.46 2.42 2.42 0 0 0 .59.9 2.45 2.45 0 0 0 .91.59 4.44 4.44 0 0 0 1.47.27h6.4a4.44 4.44 0 0 0 1.47-.27 2.45 2.45 0 0 0 .91-.59 2.42 2.42 0 0 0 .59-.9 4.3 4.3 0 0 0 .27-1.47V7.83c0-2.1.04-2.33 0-3.16zm-2.22-.08a.94.94 0 1 1 1-.94.95.95 0 0 1-1 .94zm-4.23 7.27a4 4 0 1 1 4.07-4 4 4 0 0 1-4.07 4zm0-6.63a2.61 2.61 0 1 0 2.64 2.61 2.63 2.63 0 0 0-2.64-2.62z"/></svg>