<svg xmlns="http://www.w3.org/2000/svg" width="18" height="15" viewBox="0 0 18.55 14.93"><path d="M18.55 1.77a7.67 7.67 0 0 1-2.19.59A3.79 3.79 0 0 0 18 .28a7.66 7.66 0 0 1-2.42.91A3.82 3.82 0 0 0 9 3.77a3.74 3.74 0 0 0 .1.86A10.84 10.84 0 0 1 1.29.69a3.75 3.75 0 0 0 1.18 5 3.82 3.82 0 0 1-1.72-.44A3.78 3.78 0 0 0 3.8 9a3.85 3.85 0 0 1-1.72.06 3.8 3.8 0 0 0 3.56 2.62 7.68 7.68 0 0 1-4.73 1.61 7.73 7.73 0 0 1-.91-.05 10.84 10.84 0 0 0 5.83 1.69A10.7 10.7 0 0 0 16.66 4.21v-.49a7.69 7.69 0 0 0 1.89-1.95z"/></svg>