<svg xmlns="http://www.w3.org/2000/svg" width="13" height="15" viewBox="0 0 13.46 15.97"><path d="M13.23 14.49a1.69 1.69 0 0 1-1.46 1.3 46.09 46.09 0 0 1-5 .18 46.1 46.1 0 0 1-5-.18 1.69 1.69 0 0 1-1.45-1.3A13.87 13.87 0 0 1 0 11.37a13.85 13.85 0 0 1 .24-3.12A1.69 1.69 0 0 1 1.69 7a46.22 46.22 0 0 1 5-.18 46.22 46.22 0 0 1 5 .18 1.69 1.69 0 0 1 1.46 1.3 13.88 13.88 0 0 1 .23 3.12 13.86 13.86 0 0 1-.15 3.07zM3.84 8.31H1v.83h1v5.08h.91V9.15h1zM6.3 9.82h-.82v3.36c-.18.25-.35.37-.51.37s-.17-.06-.19-.19a2.27 2.27 0 0 1 0-.31V9.82H4v3.48a2.17 2.17 0 0 0 0 .7.5.5 0 0 0 .52.33 1.31 1.31 0 0 0 .93-.54v.48h.85zm3.09 1.33a3.35 3.35 0 0 0-.08-.88.64.64 0 0 0-.65-.5 1.11 1.11 0 0 0-.84.48V8.31H7v5.91h.81v-.42a1.11 1.11 0 0 0 .84.49.64.64 0 0 0 .65-.49 3.47 3.47 0 0 0 .08-.89zm3.07 1.55h-.83a5.14 5.14 0 0 1 0 .54.35.35 0 0 1-.36.32c-.28 0-.42-.2-.42-.61v-.78h1.63v-.91a1.71 1.71 0 0 0-.25-1 1.14 1.14 0 0 0-1-.45 1.16 1.16 0 0 0-1 .45 1.68 1.68 0 0 0-.25 1v1.54a1.68 1.68 0 0 0 .26 1 1.17 1.17 0 0 0 1 .45 1.12 1.12 0 0 0 1.17-1v-.51zm-1.63-1.6q0-.61.41-.61c.27 0 .41.2.41.61v.41h-.81zm-2.61 2.46a.59.59 0 0 1-.41-.2v-2.68a.59.59 0 0 1 .41-.19c.23 0 .35.2.35.6V13c.01.36-.11.56-.35.56zm2.58-7.49H10v-.49a1.33 1.33 0 0 1-1 .55.5.5 0 0 1-.53-.33 2.21 2.21 0 0 1-.07-.66V1.52h.82V4.8a1.82 1.82 0 0 0 0 .31c0 .12.08.19.19.19s.34-.12.52-.37V1.52h.82V6zm-3-1.44a1.71 1.71 0 0 1-.25 1 1.13 1.13 0 0 1-1 .46 1.13 1.13 0 0 1-1-.46 1.69 1.69 0 0 1-.26-1V2.89a1.62 1.62 0 0 1 .26-1 1.13 1.13 0 0 1 1-.46 1.13 1.13 0 0 1 1 .46 1.72 1.72 0 0 1 .26 1v1.7zm-.87-1.72c0-.41-.13-.62-.39-.62s-.38.19-.39.56v1.83c0 .41.13.62.39.62s.38-.19.39-.57zM5.32.1l-1.1 3.54V6.1h-.91V3.65a14.5 14.5 0 0 0-.56-1.89L2.17.1V0h1l.65 2.34L4.4 0h.92v.1z"/></svg>